<svg fill="none" height="102" viewBox="0 0 107 102" width="107" xmlns="http://www.w3.org/2000/svg" xmlns:xlink="http://www.w3.org/1999/xlink"><linearGradient id="a"><stop offset="0" stop-color="#801ab3" stop-opacity="0"/><stop offset="1" stop-color="#4c4cff"/></linearGradient><radialGradient id="b" cx="0" cy="0" gradientTransform="matrix(48.99995387 -51.0000182 38.36416459 36.8596397 53 51)" gradientUnits="userSpaceOnUse" r="1" xlink:href="#a"/><radialGradient id="c" cx="0" cy="0" gradientTransform="matrix(53.50001019 -50.0000102 37.55596349 40.18488039 53.5 51)" gradientUnits="userSpaceOnUse" r="1" xlink:href="#a"/><radialGradient id="d" cx="0" cy="0" gradientTransform="matrix(-34.0001502 32.66654032 -24.57298076 -25.57617147 53 50.6667)" gradientUnits="userSpaceOnUse" r="1"><stop offset="0" stop-color="#801ab3" stop-opacity="0"/><stop offset="1" stop-color="#4c4cff" stop-opacity=".5"/></radialGradient><g clip-rule="evenodd" fill-rule="evenodd"><g fill-opacity=".25"><path d="m8.36637 37.3873c-5.82183 8.1171-5.82182 19.1084 0 27.2254l19.96723 27.8391c5.8218 8.1172 16.1412 11.5132 25.5611 8.4132l32.3076-10.6337c9.42-3.1004 15.7977-11.9926 15.7977-22.0258v-34.411c0-10.0333-6.3778-18.9254-15.7977-22.0258l-32.3076-10.63362c-9.4199-3.10044-19.7393.29606-25.5611 8.41311z" fill="url(#b)"/><path d="m103.944 39.453c4.075 7.1453 4.075 15.9487 0 23.094l-15.3444 26.906c-4.0749 7.1453-11.6056 11.547-19.7554 11.547h-30.6884c-8.1498 0-15.6805-4.4017-19.7554-11.547l-15.34423-26.906c-4.07489-7.1453-4.07489-15.9487 0-23.094l15.34423-26.906c4.0749-7.14531 11.6056-11.547 19.7554-11.547h30.6884c8.1498 0 15.6805 4.40169 19.7554 11.547z" fill="url(#c)"/><path d="m43.9249 20.9109c5.4113-3.8812 12.7389-3.8812 18.1502 0l18.5594 13.3115c5.4114 3.8812 7.6757 10.7608 5.6088 17.0408l-7.0891 21.5384c-2.0669 6.2799-7.995 10.5317-14.6839 10.5317h-22.9407c-6.6888 0-12.6169-4.2518-14.6838-10.5317l-7.0891-21.5384c-2.0669-6.28.1974-13.1596 5.6088-17.0408z" fill="url(#d)"/></g><path d="m73.3122 37.5959c.8877.8213.9205 2.1847.073 3.0451l-23.3333 23.6923c-.4247.4313-1.0148.6726-1.6299.6666s-1.2-.2589-1.6157-.6983l-12.2222-12.9231c-.8293-.8769-.7682-2.2393.1365-3.0431s2.3104-.7446 3.1398.1323l10.6169 11.2257 21.693-22.0267c.8474-.8605 2.2541-.8922 3.1419-.0708z" fill="#f2f2f3"/></g></svg>